<svg width="24" height="24" viewBox="0 0 24 24" fill="none" xmlns="http://www.w3.org/2000/svg">
<path fill-rule="evenodd" clip-rule="evenodd" d="M21.0002 20.9996C20.4479 21.5519 19.5525 21.5519 19.0002 20.9996L3.00051 4.99994C2.44823 4.44767 2.44823 3.55226 3.00051 2.99998C3.55278 2.44771 4.44819 2.44771 5.00047 2.99998L21.0002 18.9997C21.5524 19.552 21.5524 20.4474 21.0002 20.9996Z" fill="black"/>
<path fill-rule="evenodd" clip-rule="evenodd" d="M20.9996 3.00007C21.5519 3.55235 21.5519 4.44776 20.9996 5.00003L4.99994 20.9997C4.44767 21.552 3.55226 21.552 2.99998 20.9997C2.44771 20.4475 2.44771 19.552 2.99998 18.9998L18.9997 3.00007C19.552 2.4478 20.4474 2.4478 20.9996 3.00007Z" fill="black"/>
</svg>
