<svg width="24" height="24" viewBox="0 0 24 24" fill="none" xmlns="http://www.w3.org/2000/svg">
<path d="M1.58579 6.58579C1.21071 6.96086 1 7.46957 1 8V19C1 19.5304 1.21071 20.0391 1.58579 20.4142C1.96086 20.7893 2.46957 21 3 21H21C21.5304 21 22.0391 20.7893 22.4142 20.4142C22.7893 20.0391 23 19.5304 23 19V8C23 7.46957 22.7893 6.96086 22.4142 6.58579M1.58579 6.58579C1.96086 6.21071 2.46957 6 3 6H7H17H21C21.5304 6 22.0391 6.21071 22.4142 6.58579M1.58579 6.58579L12 14.5L22.4142 6.58579" stroke="#101828" stroke-width="2" stroke-linecap="round" stroke-linejoin="round"/>
</svg>
