<svg width="96" height="34" viewBox="0 0 96 34" fill="none" xmlns="http://www.w3.org/2000/svg">
<rect x="0.5" y="0.5" width="95" height="33" rx="16.5" fill="#E81414"/>
<rect x="0.5" y="0.5" width="95" height="33" rx="16.5" fill="url(#paint0_linear_624_4260)" fill-opacity="0.5"/>
<rect x="0.5" y="0.5" width="95" height="33" rx="16.5" stroke="url(#paint1_linear_624_4260)"/>
<path d="M40.54 21C40.004 20.048 39.424 19.108 38.8 18.18C38.176 17.252 37.512 16.376 36.808 15.552V21H34.96V12.684H36.484C36.748 12.948 37.04 13.272 37.36 13.656C37.68 14.04 38.004 14.452 38.332 14.892C38.668 15.324 39 15.776 39.328 16.248C39.656 16.712 39.964 17.16 40.252 17.592V12.684H42.112V21H40.54ZM44.0303 21V12.684H49.6463V14.256H45.9023V15.888H49.2263V17.424H45.9023V19.428H49.9223V21H44.0303ZM56.8877 13.572C56.9837 13.9 57.0877 14.272 57.1997 14.688C57.3197 15.096 57.4437 15.52 57.5717 15.96C57.7077 16.4 57.8437 16.84 57.9797 17.28C58.1157 17.72 58.2477 18.128 58.3757 18.504C58.4797 18.096 58.5837 17.652 58.6877 17.172C58.7997 16.692 58.9037 16.196 58.9997 15.684C59.0957 15.172 59.1877 14.664 59.2757 14.16C59.3717 13.648 59.4597 13.156 59.5397 12.684H61.4837C61.2037 14.076 60.8797 15.488 60.5117 16.92C60.1517 18.352 59.7597 19.712 59.3357 21H57.6197C57.3397 20.232 57.0677 19.428 56.8037 18.588C56.5397 17.74 56.2797 16.892 56.0237 16.044C55.7677 16.892 55.5117 17.74 55.2557 18.588C54.9997 19.428 54.7317 20.232 54.4517 21H52.7357C52.3117 19.712 51.9157 18.352 51.5477 16.92C51.1877 15.488 50.8677 14.076 50.5877 12.684H52.6157C52.6957 13.156 52.7837 13.648 52.8797 14.16C52.9757 14.664 53.0757 15.172 53.1797 15.684C53.2837 16.196 53.3877 16.692 53.4917 17.172C53.6037 17.652 53.7157 18.096 53.8277 18.504C53.9717 18.112 54.1117 17.696 54.2477 17.256C54.3837 16.816 54.5157 16.376 54.6437 15.936C54.7717 15.496 54.8877 15.072 54.9917 14.664C55.1037 14.256 55.2037 13.892 55.2917 13.572H56.8877Z" fill="white"/>
<defs>
<linearGradient id="paint0_linear_624_4260" x1="81" y1="34" x2="18" y2="-4.91475e-06" gradientUnits="userSpaceOnUse">
<stop stop-color="#ECA2AF"/>
<stop offset="1" stop-color="#FFDBDB"/>
</linearGradient>
<linearGradient id="paint1_linear_624_4260" x1="48" y1="0" x2="79.5" y2="34" gradientUnits="userSpaceOnUse">
<stop stop-color="#EA2A2A"/>
<stop offset="1" stop-color="#E5D9FF" stop-opacity="0.66"/>
</linearGradient>
</defs>
</svg>
