<?xml version="1.0" encoding="utf-8"?><svg viewBox="0 0 502.66 502.66" xmlns="http://www.w3.org/2000/svg" xmlns:xlink="http://www.w3.org/1999/xlink"><style>:root>svg{display:none}:root>svg:target{display:block}</style><svg viewBox="0 0 24 24" id="arrow" xmlns="http://www.w3.org/2000/svg"><path d="M18 15l-6-6-6 6"/></svg><svg viewBox="0 0 24 24" id="box" xmlns="http://www.w3.org/2000/svg"><path d="M16.5 9.4l-9-5.19M3.27 6.96L12 12.01l8.73-5.05M12 22.08V12m9 4V8a2 2 0 00-1-1.73l-7-4a2 2 0 00-2 0l-7 4A2 2 0 003 8v8a2 2 0 001 1.73l7 4a2 2 0 002 0l7-4A2 2 0 0021 16z"/></svg><svg viewBox="0 0 24 24" id="burger" xmlns="http://www.w3.org/2000/svg"><rect x="3" y="6" width="18" height="2" rx="1"/><rect x="3" y="11" width="18" height="2" rx="1"/><rect x="3" y="16" width="18" height="2" rx="1"/></svg><svg viewBox="0 0 24 24" id="calendar" xmlns="http://www.w3.org/2000/svg"><path d="M16 2v4M8 2v4m-5 4h18M5 4h14a2 2 0 012 2v14a2 2 0 01-2 2H5a2 2 0 01-2-2V6a2 2 0 012-2z"/></svg><svg viewBox="0 0 24 24" id="camera" xmlns="http://www.w3.org/2000/svg"><path d="M23 19a2 2 0 01-2 2H3a2 2 0 01-2-2V8a2 2 0 012-2h4l2-3h6l2 3h4a2 2 0 012 2v11z"/><path d="M12 17a4 4 0 100-8 4 4 0 000 8z"/></svg><svg viewBox="0 0 24 24" id="cross" xmlns="http://www.w3.org/2000/svg"><path fill-rule="evenodd" clip-rule="evenodd" d="M21 21a1.414 1.414 0 01-2 0L3 5a1.414 1.414 0 112-2l16 16a1.414 1.414 0 010 2z"/><path fill-rule="evenodd" clip-rule="evenodd" d="M21 3a1.414 1.414 0 010 2L5 21a1.414 1.414 0 11-2-2L19 3a1.414 1.414 0 012 0z"/></svg><svg viewBox="0 0 25 24" id="filter" xmlns="http://www.w3.org/2000/svg"><path d="M22.5 3h-20l8 9.46V19l4 2v-8.54l8-9.46z"/></svg><svg viewBox="0 0 502.664 502.664" id="icon" xmlns="http://www.w3.org/2000/svg"><path d="M153.821 358.226L0 274.337v-46.463l153.821-83.414v54.574L46.636 250.523l107.185 53.431v54.272zm26.273 29.358L282.103 115.08h32.227L212.084 387.584h-31.99zm168.749-29.358v-54.272l107.164-52.999-107.164-52.59v-53.927l153.821 83.522v46.183l-153.821 84.083z"/></svg><svg viewBox="0 0 24 24" id="image" xmlns="http://www.w3.org/2000/svg"><path d="M5 21h14a2 2 0 002-2V5a2 2 0 00-2-2H5a2 2 0 00-2 2v14a2 2 0 002 2zm0 0l11-11 5 5M10 8.5a1.5 1.5 0 11-3 0 1.5 1.5 0 013 0z"/></svg><svg viewBox="0 0 24 24" id="lightning" xmlns="http://www.w3.org/2000/svg"><path d="M13 2L3 14h9l-1 8 10-12h-9l1-8z"/></svg><svg viewBox="0 0 24 24" id="mail" xmlns="http://www.w3.org/2000/svg"><path d="M1.586 6.586A2 2 0 001 8v11a2 2 0 002 2h18a2 2 0 002-2V8a2 2 0 00-.586-1.414m-20.828 0A2 2 0 013 6h18a2 2 0 011.414.586m-20.828 0L12 14.5l10.414-7.914"/></svg><svg viewBox="0 0 24 24" id="rocket" xmlns="http://www.w3.org/2000/svg"><path d="M13.325 10.675L5.44 18.56m.85-5.722l-3.861-.912a.558.558 0 01-.267-.936l3.071-3.072c.207-.206.486-.324.78-.326l3.462-.03m4.362-3.963a24.995 24.995 0 016.564 6.564m-9.24 7.546l.912 3.862c.1.425.627.575.936.267l3.071-3.071c.207-.207.325-.486.327-.78l.03-3.462m4.625-6.174l.9-4.336a1.672 1.672 0 00-1.977-1.978l-4.336.901a6.682 6.682 0 00-3.369 1.82L8.724 8.313a8.928 8.928 0 00-2.52 5.016l-.012.082a3.877 3.877 0 004.397 4.396l.082-.013a8.922 8.922 0 005.016-2.519l3.556-3.556a6.682 6.682 0 001.82-3.369z"/></svg><svg viewBox="0 0 24 24" id="scope" xmlns="http://www.w3.org/2000/svg"><path d="M22 12c0 5.523-4.477 10-10 10m10-10c0-5.523-4.477-10-10-10m10 10h-4m-6 10C6.477 22 2 17.523 2 12m10 10v-4M2 12C2 6.477 6.477 2 12 2M2 12h4m6-10v4"/></svg><svg viewBox="0 0 24 24" id="search" xmlns="http://www.w3.org/2000/svg"><path d="M20 20l-3.867-3.867m2.09-5.022a7.111 7.111 0 11-14.223 0 7.111 7.111 0 0114.222 0z"/></svg><svg viewBox="0 0 24 24" id="video" xmlns="http://www.w3.org/2000/svg"><path d="M12 22c5.523 0 10-4.477 10-10S17.523 2 12 2 2 6.477 2 12s4.477 10 10 10z"/><path d="M10 8l6 4-6 4V8z"/></svg></svg>